<svg width="20" height="20" viewBox="0 0 20 20" fill="none" xmlns="http://www.w3.org/2000/svg">
<path d="M18.625 7.38777L17.225 5.98777L17.975 5.21277L14.775 2.01277L14 2.76277L12.575 1.33777L13.325 0.562766C13.7083 0.179433 14.1833 -0.00806738 14.75 0.000265957C15.3167 0.00859929 15.7917 0.204433 16.175 0.587766L19.4 3.81277C19.7833 4.1961 19.975 4.66693 19.975 5.22527C19.975 5.7836 19.7833 6.25443 19.4 6.63777L18.625 7.38777ZM6.625 19.4128C6.24167 19.7961 5.77083 19.9878 5.2125 19.9878C4.65417 19.9878 4.18333 19.7961 3.8 19.4128L0.575 16.1878C0.191667 15.8044 0 15.3336 0 14.7753C0 14.2169 0.191667 13.7461 0.575 13.3628L1.325 12.6128L2.75 14.0378L1.975 14.7878L5.2 18.0128L5.95 17.2378L7.375 18.6628L6.625 19.4128ZM16.55 11.0128L17.975 9.58777L10.4 2.01277L8.975 3.43777L16.55 11.0128ZM9.55 18.0128L10.975 16.5628L3.425 9.01277L1.975 10.4378L9.55 18.0128ZM9.4 12.1628L12.15 9.43777L10.55 7.83777L7.825 10.5878L9.4 12.1628ZM10.975 19.4128C10.5917 19.7961 10.1167 19.9878 9.55 19.9878C8.98333 19.9878 8.50833 19.7961 8.125 19.4128L0.575 11.8628C0.191667 11.4794 0 11.0044 0 10.4378C0 9.8711 0.191667 9.3961 0.575 9.01277L2 7.58777C2.38333 7.20443 2.85417 7.01277 3.4125 7.01277C3.97083 7.01277 4.44167 7.20443 4.825 7.58777L6.4 9.16277L9.15 6.41277L7.575 4.86277C7.19167 4.47943 7 4.00443 7 3.43777C7 2.8711 7.19167 2.3961 7.575 2.01277L9 0.587766C9.38333 0.204433 9.85417 0.012766 10.4125 0.012766C10.9708 0.012766 11.4417 0.204433 11.825 0.587766L19.4 8.16277C19.7833 8.5461 19.975 9.01693 19.975 9.57527C19.975 10.1336 19.7833 10.6044 19.4 10.9878L17.975 12.4128C17.5917 12.7961 17.1167 12.9878 16.55 12.9878C15.9833 12.9878 15.5083 12.7961 15.125 12.4128L13.575 10.8378L10.825 13.5878L12.4 15.1628C12.7833 15.5461 12.975 16.0169 12.975 16.5753C12.975 17.1336 12.7833 17.6044 12.4 17.9878L10.975 19.4128Z" fill="#475569"/>
</svg>
